#N canvas 135 203 771 716 10;
#X obj 136 24 inlet;
#X obj 465 736 outlet;
#X obj 123 767 outlet;
#X obj 136 99 route bang;
#X obj 253 519 list.build append;
#X obj 308 258 list.trim;
#X obj 252 546 route bang;
#X obj 308 303 drip;
#X obj 17 366 t b b;
#X obj 308 280 convert.ascii2int;
#X obj 257 397 demultiplex 0 1;
#X msg 432 373 1;
#X obj 311 332 sel 64 32;
#X obj 538 447 t b b;
#X msg 536 485 32;
#X msg 645 431 0;
#X obj 200 180 t b b a b;
#X msg 501 274 0;
#X obj 257 437 t b b;
#X msg 344 434 64;
#X obj 394 425 t f b;
#X msg 421 466 1;
#X obj 236 635 convert.int2ascii;
#X connect 0 0 3 0;
#X connect 3 0 8 0;
#X connect 3 1 16 0;
#X connect 4 0 6 0;
#X connect 5 0 9 0;
#X connect 6 1 22 0;
#X connect 7 0 12 0;
#X connect 8 0 1 0;
#X connect 8 1 2 0;
#X connect 9 0 7 0;
#X connect 10 0 18 0;
#X connect 10 1 19 0;
#X connect 11 0 10 1;
#X connect 12 0 10 0;
#X connect 12 1 13 0;
#X connect 12 2 20 0;
#X connect 13 0 14 0;
#X connect 13 1 15 0;
#X connect 14 0 4 1;
#X connect 15 0 10 1;
#X connect 16 0 1 0;
#X connect 16 1 4 0;
#X connect 16 2 5 0;
#X connect 16 3 17 0;
#X connect 17 0 10 1;
#X connect 18 0 4 0;
#X connect 18 1 11 0;
#X connect 19 0 4 1;
#X connect 20 0 4 1;
#X connect 20 1 21 0;
#X connect 21 0 10 1;
#X connect 22 0 2 0;
