#N canvas 490 150 733 333 10;
#N canvas 556 325 591 485 synth 0;
#X obj 85 266 synth.osc.square.bl~;
#X obj 83 296 *~;
#X obj 306 192 0;
#X obj 373 171 90;
#X obj 84 129 seq.every 4;
#X obj 83 163 seq.every 2;
#X obj 187 166 seq.every 2;
#X obj 83 239 mtof;
#X msg 85 193 55;
#X msg 155 194 48;
#X msg 187 193 51;
#X msg 257 193 58;
#X obj 102 56 t b b;
#X obj 94 93 f 0;
#X obj 131 93 + 1;
#X obj 87 351 mix.pan~;
#N canvas 0 0 446 296 panner 0;
#X obj 216 37 loadbang;
#X obj 220 88 t b b;
#X obj 201 184 line;
#X obj 215 63 metro 2000;
#X msg 250 122 0 \, 127 1000;
#X obj 154 114 delay 1000;
#X msg 154 138 0 1000;
#X obj 196 238 outlet;
#X connect 0 0 3 0;
#X connect 1 0 5 0;
#X connect 1 1 4 0;
#X connect 2 0 7 0;
#X connect 3 0 1 0;
#X connect 4 0 2 0;
#X connect 5 0 6 0;
#X connect 6 0 2 0;
#X restore 142 322 pd panner;
#X obj 246 277 synth.osc.saw.bl~;
#X obj 246 255 mtof;
#X obj 238 343 mix.pan~;
#N canvas 0 0 442 292 panner 0;
#X obj 216 37 loadbang;
#X obj 220 88 t b b;
#X obj 201 184 line;
#X obj 196 238 outlet;
#X msg 250 122 0 \, 127 700;
#X msg 154 138 0 700;
#X obj 154 115 delay 700;
#X obj 215 63 metro 1400;
#X connect 0 0 7 0;
#X connect 1 0 6 0;
#X connect 1 1 4 0;
#X connect 2 0 3 0;
#X connect 4 0 2 0;
#X connect 5 0 2 0;
#X connect 6 0 5 0;
#X connect 7 0 1 0;
#X restore 296 316 pd panner;
#X obj 238 311 *~;
#X obj 246 232 - 12;
#X obj 102 29 metro 240;
#X obj 306 171 del 100;
#X obj 87 427 outlet~;
#X obj 191 429 outlet~;
#X obj 102 7 inlet;
#X obj 392 247 synth.adsr~ 30 20 0.1 200;
#X connect 0 0 1 0;
#X connect 1 0 15 0;
#X connect 2 0 28 0;
#X connect 3 0 28 0;
#X connect 4 0 5 0;
#X connect 4 1 6 0;
#X connect 5 0 8 0;
#X connect 5 1 9 0;
#X connect 6 0 10 0;
#X connect 6 1 11 0;
#X connect 7 0 0 0;
#X connect 8 0 7 0;
#X connect 8 0 22 0;
#X connect 9 0 7 0;
#X connect 9 0 22 0;
#X connect 10 0 7 0;
#X connect 10 0 22 0;
#X connect 11 0 7 0;
#X connect 11 0 22 0;
#X connect 12 0 13 0;
#X connect 12 1 3 0;
#X connect 12 1 24 0;
#X connect 13 0 14 0;
#X connect 13 0 4 0;
#X connect 14 0 13 1;
#X connect 15 0 25 0;
#X connect 15 1 26 0;
#X connect 16 0 15 1;
#X connect 17 0 21 0;
#X connect 18 0 17 0;
#X connect 19 0 25 0;
#X connect 19 1 26 0;
#X connect 20 0 19 1;
#X connect 21 0 19 0;
#X connect 22 0 18 0;
#X connect 23 0 12 0;
#X connect 24 0 2 0;
#X connect 27 0 23 0;
#X connect 28 0 1 1;
#X connect 28 0 21 1;
#X restore 193 62 pd synth;
#X obj 193 38 tgl 15 0 empty empty empty 17 7 0 10 -24198 -1 -1 0 1
;
#X text 215 38 on/off;
#X obj 206 118 mix.out_~;
#X obj 621 27 param.gui;
#X obj 24 189 anal.scope_~ 1;
#X obj 193 188 anal.scope_~ 1;
#X obj 192 92 fx.distortion.nonmonotone~ @id matju;
#X msg 621 5 matju;
#X msg 405 71 feedback \$1;
#X obj 408 52 hsl 128 15 0 1 0 0 empty empty empty -2 -8 0 10 -262144
-1 -1 0 1;
#X obj 548 52 hsl 128 15 0 1000 0 0 empty empty empty -2 -8 0 10 -262144
-1 -1 0 1;
#X msg 545 71 basefeed \$1;
#X obj 369 186 cnv 15 320 90 empty empty empty 20 12 0 14 -261682 -66577
0;
#X text 372 210 le 16 septembre 2009;
#X text 371 245 Copyright © 2009 par Mathieu Bouchard;
#X text 372 233 Fabriqué à Villeray \, avec amour;
#X text 372 198 Tel que presenté au club PureData de Montréal;
#X text 372 187 Patch de distorsion nonmonotone qui suit l'enveloppe
;
#X text 371 260 Publié sous licence Standard Improved BSD;
#X connect 0 0 5 0;
#X connect 0 0 7 0;
#X connect 0 1 7 1;
#X connect 1 0 0 0;
#X connect 7 0 3 0;
#X connect 7 0 6 0;
#X connect 7 1 3 1;
#X connect 8 0 4 0;
#X connect 9 0 7 2;
#X connect 10 0 9 0;
#X connect 11 0 12 0;
#X connect 12 0 7 2;
