#N canvas 0 299 639 371 10;
#X obj 387 129 param.group;
#X obj 482 78 loadbang;
#X obj 482 102 dollarg;
#X obj 387 80 inlet params;
#X obj 65 238 outlet~ left;
#X obj 148 238 outlet~ right;
#X obj 67 86 inlet~ left;
#X obj 146 86 inlet~ right;
#X obj 67 191 mix.wet.stereo~;
#X obj 167 191 param.atom wet 127 0 127;
#N canvas 724 25 693 413 distortionnonmonotone 1;
#X obj 626 20 inlet;
#X obj 626 47 switch~;
#X obj 54 20 inlet~;
#X obj 513 17 inlet~;
#X obj 42 527 outlet~;
#X obj 504 518 outlet~;
#X obj 111 228 dbtorms;
#X floatatom 271 265 5 0 0 0 - - -;
#X obj 54 226 +~;
#X obj 54 51 hip~ 5;
#X obj 229 167 phasor~;
#X obj 229 223 phasor~;
#X obj 111 210 env~;
#X obj 54 375 +~;
#X obj 69 428 phasor~;
#X obj 69 447 expr~ sin($v1*3.1416*2)*$f2+$f3;
#X obj 53 502 +~;
#X obj 229 185 expr~ sin($v1*3.141593*2)*$f2+$f3;
#X obj 229 241 expr~ sin($v1*3.141593*2)*$f2+$f3;
#X obj 67 483 *~;
#X obj 70 267 expr~ sin($v1*$v2/$f3)*$f3*0.35;
#X obj 70 287 expr~ sin($v1*$v2/$f3)*$f3*0.35;
#X text 93 194 calcul du volume;
#X text 306 265 volume;
#X obj 571 218 dbtorms;
#X floatatom 731 255 5 0 0 0 - - -;
#X obj 514 216 +~;
#X obj 514 41 hip~ 5;
#X obj 689 157 phasor~;
#X obj 689 213 phasor~;
#X obj 571 200 env~;
#X obj 514 365 +~;
#X obj 529 418 phasor~;
#X obj 529 437 expr~ sin($v1*3.1416*2)*$f2+$f3;
#X obj 513 492 +~;
#X obj 689 175 expr~ sin($v1*3.141593*2)*$f2+$f3;
#X obj 689 231 expr~ sin($v1*3.141593*2)*$f2+$f3;
#X obj 529 474 *~;
#X obj 530 257 expr~ sin($v1*$v2/$f3)*$f3*0.35;
#X obj 530 277 expr~ sin($v1*$v2/$f3)*$f3*0.35;
#X text 553 184 calcul du volume;
#X text 766 255 volume;
#X obj 189 112 param.atom freq1 0 0 800;
#X obj 339 112 param.atom amp1 0 0 100;
#X obj 479 112 param.atom base1 0 0 100;
#X obj 199 342 param.atom freq2 0 0 800;
#X obj 349 342 param.atom amp2 0 0 100;
#X obj 489 342 param.atom base2 0 0 100;
#X obj 79 392 param.atom freqfeed 0 0 800;
#X obj 229 392 param.atom ampfeed 0 0 100;
#X obj 369 392 param.atom basefeed 0 0 100;
#X obj 71 464 vd~ \$0bar1;
#X obj 95 527 delwrite~ \$0bar1 50;
#X obj 555 517 delwrite~ \$0bar2 50;
#X obj 529 455 vd~ \$0bar2;
#X floatatom 245 514 5 0 0 0 - - -;
#X floatatom 142 420 5 0 0 0 - - -;
#X obj 245 492 param.atom feedback 0 0 1;
#X text 110 4 distorsion non-monotone (deux copies);
#X text 111 68 mix avec le son original pcq l'effet tout seul sonne
trop aigu (il élimine les graves);
#X text 111 16 l'effet est conjugué par un compresseur total de volume
\,;
#X text 111 28 c'est-à-dire qu'on annule le volume avant l'effet;
#X text 111 40 et qu'on le restitue ensuite \, pour que la distorsion
ait;
#X text 111 52 un impact à peu près constant \, quel que soit le
volume.;
#X connect 0 0 1 0;
#X connect 2 0 9 0;
#X connect 3 0 27 0;
#X connect 6 0 7 0;
#X connect 6 0 20 2;
#X connect 6 0 21 2;
#X connect 8 0 12 0;
#X connect 8 0 13 0;
#X connect 8 0 20 0;
#X connect 8 0 21 0;
#X connect 9 0 8 0;
#X connect 10 0 17 0;
#X connect 11 0 18 0;
#X connect 12 0 6 0;
#X connect 13 0 16 0;
#X connect 14 0 15 0;
#X connect 15 0 51 0;
#X connect 16 0 4 0;
#X connect 16 0 52 0;
#X connect 17 0 20 1;
#X connect 18 0 21 1;
#X connect 19 0 16 1;
#X connect 20 0 13 0;
#X connect 21 0 13 0;
#X connect 24 0 25 0;
#X connect 24 0 38 2;
#X connect 24 0 39 2;
#X connect 26 0 30 0;
#X connect 26 0 31 0;
#X connect 26 0 38 0;
#X connect 26 0 39 0;
#X connect 27 0 26 0;
#X connect 28 0 35 0;
#X connect 29 0 36 0;
#X connect 30 0 24 0;
#X connect 31 0 34 0;
#X connect 32 0 33 0;
#X connect 33 0 54 0;
#X connect 34 0 5 0;
#X connect 34 0 53 0;
#X connect 35 0 38 1;
#X connect 36 0 39 1;
#X connect 37 0 34 1;
#X connect 38 0 31 0;
#X connect 39 0 31 0;
#X connect 42 0 10 0;
#X connect 42 0 28 0;
#X connect 43 0 17 1;
#X connect 43 0 35 1;
#X connect 44 0 17 2;
#X connect 44 0 35 2;
#X connect 45 0 11 0;
#X connect 45 0 29 0;
#X connect 46 0 18 1;
#X connect 46 0 36 1;
#X connect 47 0 18 2;
#X connect 47 0 36 2;
#X connect 48 0 14 0;
#X connect 48 0 32 0;
#X connect 49 0 15 1;
#X connect 49 0 33 1;
#X connect 50 0 15 2;
#X connect 50 0 33 2;
#X connect 51 0 19 0;
#X connect 54 0 37 0;
#X connect 55 0 19 1;
#X connect 55 0 37 1;
#X connect 57 0 55 0;
#X restore 98 134 pd distortionnonmonotone;
#X connect 1 0 2 0;
#X connect 2 0 0 1;
#X connect 2 1 0 2;
#X connect 3 0 0 0;
#X connect 6 0 10 0;
#X connect 6 0 8 0;
#X connect 7 0 10 1;
#X connect 7 0 8 1;
#X connect 8 0 4 0;
#X connect 8 1 5 0;
#X connect 8 2 10 2;
#X connect 9 0 8 4;
#X connect 10 0 8 2;
#X connect 10 1 8 3;
