#N canvas 1026 500 610 380 10;
#X obj 57 29 inlet list;
#X obj 248 30 inlet element;
#X obj 173 298 outlet value;
#X text 194 126 Note: if changed must work with negatives element indices.
;
#X obj 104 168 list split 0;
#X obj 137 219 list split 1;
#X obj 246 72 t f;
#X floatatom 204 267 5 0 0 0 - - -;
#X connect 0 0 4 0;
#X connect 1 0 6 0;
#X connect 4 1 5 0;
#X connect 5 0 2 0;
#X connect 5 0 7 0;
#X connect 6 0 4 1;
