#N canvas 575 378 412 526 10;
#X obj 50 166 list append;
#X obj 251 5 inlet;
#X obj 47 23 inlet;
#X obj 51 293 +;
#X obj 206 215 * 12;
#X obj 213 98 t a a;
#X obj 50 236 list.element;
#X obj 179 149 t f f;
#X obj 208 191 div;
#X obj 48 487 outlet;
#X obj 307 4 loadbang;
#X obj 304 26 dollarg;
#X obj 51 80 t b f;
#X obj 305 57 list;
#X obj 248 146 list.length;
#X obj 172 181 mod;
#X obj 164 213 + 1;
#X floatatom 255 182 5 0 0 0 - - -;
#X floatatom 181 273 5 0 0 0 - - -;
#X floatatom 120 307 5 0 0 0 - - -;
#X connect 0 0 6 0;
#X connect 1 0 5 0;
#X connect 2 0 12 0;
#X connect 3 0 9 0;
#X connect 4 0 3 1;
#X connect 5 0 0 1;
#X connect 5 1 14 0;
#X connect 6 0 3 0;
#X connect 6 0 19 0;
#X connect 7 0 15 0;
#X connect 7 1 8 0;
#X connect 8 0 4 0;
#X connect 10 0 11 0;
#X connect 11 0 13 0;
#X connect 12 0 0 0;
#X connect 12 1 7 0;
#X connect 13 0 5 0;
#X connect 14 0 8 1;
#X connect 14 0 15 1;
#X connect 14 0 17 0;
#X connect 15 0 6 1;
#X connect 16 0 18 0;
