#N canvas 160 230 652 348 10;
#X obj 100 117 cnv 15 170 25 empty empty empty 2 7 0 8 -1 -262144 0
;
#X obj 76 -67 inlet;
#X obj 140 226 outlet;
#X obj 103 127 tgl 14 0 empty empty empty 20 7 0 8 -262144 -1 -1 0
1;
#X obj 124 128 nbx 5 14 0.001 1e+37 0 0 empty empty bpm 0 -5 0 8 -1
-262144 -262144 120 256;
#X obj 218 -56 inlet;
#X obj 147 -56 inlet;
#X obj 270 -42 inlet;
#X obj 173 128 nbx 5 14 1 1e+37 0 0 empty empty beat_* 0 -5 0 8 -1
-262144 -262144 1 256;
#X obj 223 128 nbx 5 14 1 1e+37 0 0 empty empty div 0 -5 0 8 -1 -262144
-262144 16 256;
#X obj 370 -31 loadbang;
#X obj 367 -2 t b b b;
#X obj 356 38 f \$3;
#X obj 280 32 f \$2;
#X obj 178 -16 f \$1;
#X obj 178 16 sel 0;
#X msg 180 44 120;
#X obj 353 77 sel 0;
#X obj 276 59 sel 0;
#X msg 270 83 1;
#X msg 357 110 16;
#N canvas 1069 191 767 517 tempo 0;
#X obj 223 97 inlet;
#X obj 160 562 outlet;
#N canvas 0 0 454 304 bpm2ms 0;
#X obj 130 52 inlet;
#X obj 130 112 /;
#X obj 130 138 * 60;
#X msg 130 89 1000 \$1;
#X obj 129 191 outlet;
#X connect 0 0 3 0;
#X connect 1 0 2 0;
#X connect 2 0 4 0;
#X connect 3 0 1 0;
#X restore 173 276 pd bpm2ms;
#X obj 103 442 metro;
#X obj 234 184 f \$1;
#X obj 86 137 inlet;
#N canvas 0 0 587 427 countmodulo 0;
#X obj 62 164 float;
#X obj 102 163 + 1;
#X obj 63 9 inlet;
#X msg 62 126 bang;
#X obj 62 258 outlet;
#X obj 61 208 mod;
#X obj 133 10 inlet;
#X msg 134 113 0;
#X obj 360 9 inlet;
#X text 168 9 reset or set;
#X obj 133 51 route bang reset float;
#X obj 181 124 mod;
#X text 399 9 modulo value (max value);
#X connect 0 0 5 0;
#X connect 1 0 0 1;
#X connect 2 0 3 0;
#X connect 3 0 0 0;
#X connect 5 0 1 0;
#X connect 5 0 4 0;
#X connect 6 0 10 0;
#X connect 7 0 0 1;
#X connect 8 0 5 1;
#X connect 8 0 11 1;
#X connect 10 0 7 0;
#X connect 10 1 7 0;
#X connect 10 2 11 0;
#X connect 11 0 0 1;
#X restore 166 522 pd countmodulo;
#X msg 489 216 16;
#X obj 517 165 f \$3;
#X obj 196 398 / 4;
#X msg 203 487 reset;
#X obj 95 403 t b b;
#X obj 115 376 sel 1;
#X obj 68 324 route bang;
#X obj 608 97 inlet;
#X obj 314 315 t b f;
#X obj 391 26 inlet;
#X obj 323 277 / 1;
#X msg 169 246 120;
#X obj 402 149 f \$2;
#X msg 347 210 1;
#X obj 385 182 moses 1;
#X obj 499 189 moses 1;
#X obj 181 220 moses 1;
#X obj 419 213 / 4;
#X connect 0 0 4 0;
#X connect 2 0 9 0;
#X connect 3 0 6 0;
#X connect 4 0 23 0;
#X connect 5 0 13 0;
#X connect 6 0 1 0;
#X connect 7 0 6 2;
#X connect 7 0 24 0;
#X connect 8 0 22 0;
#X connect 9 0 3 1;
#X connect 10 0 6 1;
#X connect 11 0 3 0;
#X connect 11 1 10 0;
#X connect 12 0 11 0;
#X connect 12 1 3 0;
#X connect 13 0 11 0;
#X connect 13 1 12 0;
#X connect 14 0 8 0;
#X connect 15 0 4 0;
#X connect 15 1 9 1;
#X connect 16 0 19 0;
#X connect 17 0 15 0;
#X connect 18 0 2 0;
#X connect 19 0 21 0;
#X connect 20 0 17 1;
#X connect 21 0 20 0;
#X connect 21 1 17 1;
#X connect 22 0 7 0;
#X connect 22 1 6 2;
#X connect 22 1 24 0;
#X connect 23 0 18 0;
#X connect 23 1 2 0;
#X connect 24 0 17 0;
#X restore 137 166 pd tempo;
#X connect 1 0 3 0;
#X connect 3 0 21 0;
#X connect 4 0 21 1;
#X connect 5 0 13 0;
#X connect 6 0 14 0;
#X connect 7 0 12 0;
#X connect 8 0 21 2;
#X connect 9 0 21 3;
#X connect 10 0 11 0;
#X connect 11 0 14 0;
#X connect 11 1 13 0;
#X connect 11 2 12 0;
#X connect 12 0 17 0;
#X connect 13 0 18 0;
#X connect 14 0 15 0;
#X connect 15 0 16 0;
#X connect 15 1 4 0;
#X connect 16 0 4 0;
#X connect 17 0 20 0;
#X connect 17 1 9 0;
#X connect 18 0 19 0;
#X connect 18 1 8 0;
#X connect 19 0 8 0;
#X connect 20 0 9 0;
#X connect 21 0 2 0;
#X coords 0 -1 1 1 170 42 1 100 100;
